<mxfile host="65bd71144e">
    <diagram name="PÃ¡gina-1" id="bCabtzZe-On4UlTafJGf">
        <mxGraphModel dx="33" dy="114" grid="1" gridSize="10" guides="1" tooltips="1" connect="1" arrows="1" fold="1" page="1" pageScale="1" pageWidth="827" pageHeight="1169" math="0" shadow="0">
            <root>
                <mxCell id="0"/>
                <mxCell id="1" parent="0"/>
                <mxCell id="NxFCnqgn0DQF930zjPqC-115" value="" style="rounded=0;whiteSpace=wrap;html=1;fillColor=none;" parent="1" vertex="1">
                    <mxGeometry x="1258" y="360" width="1620" height="450" as="geometry"/>
                </mxCell>
                <mxCell id="NxFCnqgn0DQF930zjPqC-2" value="" style="rounded=0;whiteSpace=wrap;html=1;" parent="1" vertex="1">
                    <mxGeometry x="1818" y="430" width="640" height="370" as="geometry"/>
                </mxCell>
                <mxCell id="NxFCnqgn0DQF930zjPqC-23" value="" style="shape=line;perimeter=none;resizeWidth=1;fillColor=none;fontColor=#E6E6E6;" parent="1" vertex="1">
                    <mxGeometry x="1818" y="551.25" width="640" height="10" as="geometry"/>
                </mxCell>
                <mxCell id="NxFCnqgn0DQF930zjPqC-27" value="" style="shape=line;strokeColor=#999999;perimeter=none;resizeWidth=1;" parent="1" vertex="1">
                    <mxGeometry x="1818" y="465" width="640" height="10" as="geometry"/>
                </mxCell>
                <mxCell id="NxFCnqgn0DQF930zjPqC-28" value="&lt;h3&gt;&lt;font face=&quot;Verdana&quot; style=&quot;font-size: 18px;&quot;&gt;Machine List&lt;/font&gt;&lt;/h3&gt;" style="text;strokeColor=none;align=center;fillColor=none;html=1;verticalAlign=middle;whiteSpace=wrap;rounded=0;" parent="1" vertex="1">
                    <mxGeometry x="1818" y="430" width="160" height="40" as="geometry"/>
                </mxCell>
                <mxCell id="NxFCnqgn0DQF930zjPqC-31" value="&lt;span style=&quot;font-size: 10px;&quot;&gt;Machine:&lt;/span&gt;" style="text;strokeColor=none;align=center;fillColor=none;html=1;verticalAlign=middle;whiteSpace=wrap;rounded=0;" parent="1" vertex="1">
                    <mxGeometry x="1826.56" y="486" width="102.62" height="30" as="geometry"/>
                </mxCell>
                <mxCell id="4MJQGTbwfi2Cli83ThLc-63" style="rounded=0;orthogonalLoop=1;jettySize=auto;html=1;exitX=1;exitY=0.5;exitDx=0;exitDy=0;" parent="1" source="NxFCnqgn0DQF930zjPqC-50" target="4MJQGTbwfi2Cli83ThLc-62" edge="1">
                    <mxGeometry relative="1" as="geometry"/>
                </mxCell>
                <mxCell id="NxFCnqgn0DQF930zjPqC-50" value="" style="rounded=0;whiteSpace=wrap;html=1;fillColor=none;strokeColor=#82b366;" parent="1" vertex="1">
                    <mxGeometry x="1848" y="480" width="560" height="40" as="geometry"/>
                </mxCell>
                <mxCell id="NxFCnqgn0DQF930zjPqC-54" value="flux.js" style="swimlane;fontStyle=0;childLayout=stackLayout;horizontal=1;startSize=30;horizontalStack=0;resizeParent=1;resizeParentMax=0;resizeLast=0;collapsible=1;marginBottom=0;whiteSpace=wrap;html=1;" parent="1" vertex="1">
                    <mxGeometry x="1278" y="486" width="230" height="60" as="geometry"/>
                </mxCell>
                <mxCell id="NxFCnqgn0DQF930zjPqC-55" value="store: machineList" style="text;strokeColor=none;fillColor=none;align=left;verticalAlign=middle;spacingLeft=4;spacingRight=4;overflow=hidden;points=[[0,0.5],[1,0.5]];portConstraint=eastwest;rotatable=0;whiteSpace=wrap;html=1;" parent="NxFCnqgn0DQF930zjPqC-54" vertex="1">
                    <mxGeometry y="30" width="230" height="30" as="geometry"/>
                </mxCell>
                <mxCell id="NxFCnqgn0DQF930zjPqC-59" style="rounded=0;orthogonalLoop=1;jettySize=auto;html=1;exitX=1;exitY=0.5;exitDx=0;exitDy=0;entryX=0;entryY=0.25;entryDx=0;entryDy=0;" parent="1" source="NxFCnqgn0DQF930zjPqC-55" target="4MJQGTbwfi2Cli83ThLc-57" edge="1">
                    <mxGeometry relative="1" as="geometry">
                        <mxPoint x="1738" y="470" as="targetPoint"/>
                    </mxGeometry>
                </mxCell>
                <mxCell id="NxFCnqgn0DQF930zjPqC-60" value="map" style="edgeLabel;html=1;align=center;verticalAlign=middle;resizable=0;points=[];labelBorderColor=default;" parent="NxFCnqgn0DQF930zjPqC-59" vertex="1" connectable="0">
                    <mxGeometry x="-0.1264" relative="1" as="geometry">
                        <mxPoint as="offset"/>
                    </mxGeometry>
                </mxCell>
                <mxCell id="NxFCnqgn0DQF930zjPqC-82" value="CUSTOMER MACHINE LIST" style="text;html=1;align=left;verticalAlign=middle;resizable=0;points=[];autosize=1;strokeColor=none;fillColor=none;fontSize=22;fontStyle=1" parent="1" vertex="1">
                    <mxGeometry x="1278" y="378" width="310" height="40" as="geometry"/>
                </mxCell>
                <mxCell id="2" value="POPULATE MACHINE SELECT OPTION" style="text;html=1;align=left;verticalAlign=middle;resizable=0;points=[];autosize=1;strokeColor=none;fillColor=none;fontSize=16;fontStyle=0" parent="1" vertex="1">
                    <mxGeometry x="1278" y="423" width="320" height="30" as="geometry"/>
                </mxCell>
                <mxCell id="NxFCnqgn0DQF930zjPqC-29" value="&lt;font style=&quot;font-size: 11px;&quot;&gt;CC63 - AA0101&lt;/font&gt;" style="html=1;shadow=0;dashed=0;shape=mxgraph.bootstrap.rrect;rSize=5;strokeColor=#505050;strokeWidth=1;fillColor=#ffffff;fontColor=#777777;whiteSpace=wrap;align=left;verticalAlign=middle;fontStyle=0;fontSize=14;spacingRight=0;spacing=17;" parent="1" vertex="1">
                    <mxGeometry x="1929.1799999999998" y="491" width="378.82" height="20" as="geometry"/>
                </mxCell>
                <mxCell id="NxFCnqgn0DQF930zjPqC-30" value="" style="shape=triangle;direction=south;fillColor=#495057;strokeColor=none;perimeter=none;" parent="NxFCnqgn0DQF930zjPqC-29" vertex="1">
                    <mxGeometry x="1" y="0.5" width="10" height="5" relative="1" as="geometry">
                        <mxPoint x="-17" y="-2.5" as="offset"/>
                    </mxGeometry>
                </mxCell>
                <mxCell id="NxFCnqgn0DQF930zjPqC-88" style="rounded=0;orthogonalLoop=1;jettySize=auto;html=1;exitX=0.5;exitY=0;exitDx=0;exitDy=0;" parent="1" source="NxFCnqgn0DQF930zjPqC-85" edge="1">
                    <mxGeometry relative="1" as="geometry">
                        <mxPoint x="2088" y="410" as="targetPoint"/>
                    </mxGeometry>
                </mxCell>
                <mxCell id="NxFCnqgn0DQF930zjPqC-85" value="" style="rounded=0;whiteSpace=wrap;html=1;fillColor=none;strokeColor=#B31525;" parent="1" vertex="1">
                    <mxGeometry x="1984.1799999999998" y="491" width="40" height="20" as="geometry"/>
                </mxCell>
                <mxCell id="NxFCnqgn0DQF930zjPqC-87" style="rounded=0;orthogonalLoop=1;jettySize=auto;html=1;exitX=0.5;exitY=0;exitDx=0;exitDy=0;" parent="1" source="NxFCnqgn0DQF930zjPqC-86" edge="1">
                    <mxGeometry relative="1" as="geometry">
                        <mxPoint x="2018" y="400" as="targetPoint"/>
                    </mxGeometry>
                </mxCell>
                <mxCell id="NxFCnqgn0DQF930zjPqC-86" value="" style="rounded=0;whiteSpace=wrap;html=1;fillColor=none;strokeColor=#B31525;" parent="1" vertex="1">
                    <mxGeometry x="1938" y="491" width="40" height="20" as="geometry"/>
                </mxCell>
                <mxCell id="NxFCnqgn0DQF930zjPqC-89" value="machine.model" style="text;html=1;align=center;verticalAlign=middle;resizable=0;points=[];autosize=1;strokeColor=none;fillColor=none;" parent="1" vertex="1">
                    <mxGeometry x="1968" y="378" width="100" height="30" as="geometry"/>
                </mxCell>
                <mxCell id="NxFCnqgn0DQF930zjPqC-90" value="machine.serial_number" style="text;html=1;align=center;verticalAlign=middle;resizable=0;points=[];autosize=1;strokeColor=none;fillColor=none;" parent="1" vertex="1">
                    <mxGeometry x="2079.18" y="390" width="150" height="30" as="geometry"/>
                </mxCell>
                <mxCell id="4MJQGTbwfi2Cli83ThLc-41" value="&lt;font style=&quot;font-size: 11px;&quot;&gt;CC63 - AA0101&lt;/font&gt;" style="html=1;shadow=0;dashed=0;shape=mxgraph.bootstrap.rrect;rSize=5;strokeColor=#505050;strokeWidth=1;fillColor=#ffffff;fontColor=#777777;whiteSpace=wrap;align=left;verticalAlign=middle;fontStyle=0;fontSize=14;spacingRight=0;spacing=17;" parent="1" vertex="1">
                    <mxGeometry x="1938.5900000000001" y="590" width="378.82" height="36" as="geometry"/>
                </mxCell>
                <mxCell id="4MJQGTbwfi2Cli83ThLc-42" value="" style="shape=triangle;direction=south;fillColor=#495057;strokeColor=none;perimeter=none;" parent="4MJQGTbwfi2Cli83ThLc-41" vertex="1">
                    <mxGeometry x="1" y="0.5" width="10" height="5" relative="1" as="geometry">
                        <mxPoint x="-17" y="-2.5" as="offset"/>
                    </mxGeometry>
                </mxCell>
                <mxCell id="4MJQGTbwfi2Cli83ThLc-49" value="&lt;font style=&quot;font-size: 11px;&quot;&gt;CC100 - AA0129&lt;/font&gt;" style="html=1;shadow=0;dashed=0;shape=mxgraph.bootstrap.rrect;rSize=5;strokeColor=#505050;strokeWidth=1;fillColor=#ffffff;fontColor=#777777;whiteSpace=wrap;align=left;verticalAlign=middle;fontStyle=0;fontSize=14;spacingRight=0;spacing=17;" parent="1" vertex="1">
                    <mxGeometry x="1938.5900000000001" y="626" width="378.82" height="36" as="geometry"/>
                </mxCell>
                <mxCell id="4MJQGTbwfi2Cli83ThLc-50" value="" style="shape=triangle;direction=south;fillColor=#495057;strokeColor=none;perimeter=none;" parent="4MJQGTbwfi2Cli83ThLc-49" vertex="1">
                    <mxGeometry x="1" y="0.5" width="10" height="5" relative="1" as="geometry">
                        <mxPoint x="-17" y="-2.5" as="offset"/>
                    </mxGeometry>
                </mxCell>
                <mxCell id="4MJQGTbwfi2Cli83ThLc-53" value="&lt;font style=&quot;font-size: 11px;&quot;&gt;CC100 - BB0201&lt;/font&gt;" style="html=1;shadow=0;dashed=0;shape=mxgraph.bootstrap.rrect;rSize=5;strokeColor=#505050;strokeWidth=1;fillColor=#ffffff;fontColor=#777777;whiteSpace=wrap;align=left;verticalAlign=middle;fontStyle=0;fontSize=14;spacingRight=0;spacing=17;" parent="1" vertex="1">
                    <mxGeometry x="1938.5900000000001" y="662" width="378.82" height="36" as="geometry"/>
                </mxCell>
                <mxCell id="4MJQGTbwfi2Cli83ThLc-54" value="" style="shape=triangle;direction=south;fillColor=#495057;strokeColor=none;perimeter=none;" parent="4MJQGTbwfi2Cli83ThLc-53" vertex="1">
                    <mxGeometry x="1" y="0.5" width="10" height="5" relative="1" as="geometry">
                        <mxPoint x="-17" y="-2.5" as="offset"/>
                    </mxGeometry>
                </mxCell>
                <mxCell id="4MJQGTbwfi2Cli83ThLc-61" style="rounded=0;orthogonalLoop=1;jettySize=auto;html=1;exitX=1;exitY=0.5;exitDx=0;exitDy=0;" parent="1" source="4MJQGTbwfi2Cli83ThLc-57" target="4MJQGTbwfi2Cli83ThLc-60" edge="1">
                    <mxGeometry relative="1" as="geometry"/>
                </mxCell>
                <mxCell id="4MJQGTbwfi2Cli83ThLc-57" value="" style="rounded=0;whiteSpace=wrap;html=1;fillColor=none;strokeColor=#B31525;" parent="1" vertex="1">
                    <mxGeometry x="1918" y="576" width="410" height="134" as="geometry"/>
                </mxCell>
                <mxCell id="4MJQGTbwfi2Cli83ThLc-58" style="rounded=0;orthogonalLoop=1;jettySize=auto;html=1;exitX=1;exitY=0.5;exitDx=0;exitDy=0;entryX=0;entryY=0.5;entryDx=0;entryDy=0;" parent="1" source="NxFCnqgn0DQF930zjPqC-55" target="NxFCnqgn0DQF930zjPqC-50" edge="1">
                    <mxGeometry relative="1" as="geometry">
                        <mxPoint x="1518" y="541" as="sourcePoint"/>
                        <mxPoint x="1928" y="620" as="targetPoint"/>
                    </mxGeometry>
                </mxCell>
                <mxCell id="4MJQGTbwfi2Cli83ThLc-59" value="map" style="edgeLabel;html=1;align=center;verticalAlign=middle;resizable=0;points=[];labelBorderColor=default;" parent="4MJQGTbwfi2Cli83ThLc-58" vertex="1" connectable="0">
                    <mxGeometry x="-0.1264" relative="1" as="geometry">
                        <mxPoint x="34" y="-1" as="offset"/>
                    </mxGeometry>
                </mxCell>
                <mxCell id="4MJQGTbwfi2Cli83ThLc-60" value="On entering page will display all customer machines" style="text;html=1;align=center;verticalAlign=middle;resizable=0;points=[];autosize=1;strokeColor=default;fillColor=none;labelBorderColor=none;" parent="1" vertex="1">
                    <mxGeometry x="2518" y="620" width="300" height="30" as="geometry"/>
                </mxCell>
                <mxCell id="4MJQGTbwfi2Cli83ThLc-62" value="Multiselect: fIlter displayed machines with machines selected" style="text;html=1;align=center;verticalAlign=middle;resizable=0;points=[];autosize=1;strokeColor=default;fillColor=none;labelBorderColor=none;" parent="1" vertex="1">
                    <mxGeometry x="2493" y="490" width="350" height="30" as="geometry"/>
                </mxCell>
            </root>
        </mxGraphModel>
    </diagram>
</mxfile>